<svg width="57" height="57" viewBox="0 0 57 57" fill="none" xmlns="http://www.w3.org/2000/svg">
<g clip-path="url(#clip0_1383_6922)">
<path d="M28.5 4.75C15.3781 4.75 4.75 15.3781 4.75 28.5C4.75 41.6219 15.3781 52.25 28.5 52.25C41.6219 52.25 52.25 41.6219 52.25 28.5C52.25 15.3781 41.6219 4.75 28.5 4.75ZM28.5 11.875C32.4306 11.875 35.625 15.0694 35.625 19C35.625 22.9425 32.4306 26.125 28.5 26.125C24.5694 26.125 21.375 22.9425 21.375 19C21.375 15.0694 24.5694 11.875 28.5 11.875ZM28.5 45.6C22.5506 45.6 17.3256 42.56 14.25 37.9525C14.3094 33.2381 23.7619 30.6375 28.5 30.6375C33.2381 30.6375 42.6787 33.2381 42.75 37.9525C39.6744 42.56 34.4494 45.6 28.5 45.6Z" fill="#454545" fill-opacity="0.8"/>
</g>
<defs>
<clipPath id="clip0_1383_6922">
<rect width="57" height="57" fill="white"/>
</clipPath>
</defs>
</svg>
