<svg width="27" height="27" viewBox="0 0 27 27" fill="none" xmlns="http://www.w3.org/2000/svg">
<path d="M19.4062 13.5C20.0776 13.5 20.7214 13.7667 21.1961 14.2414C21.6708 14.7161 21.9375 15.3599 21.9375 16.0312V16.875C21.9375 20.2011 18.7987 23.625 13.5 23.625C8.20125 23.625 5.0625 20.2011 5.0625 16.875V16.0312C5.0625 15.3599 5.32918 14.7161 5.80389 14.2414C6.27859 13.7667 6.92242 13.5 7.59375 13.5H19.4062ZM13.5 2.53125C14.7308 2.53125 15.9111 3.02017 16.7814 3.89046C17.6517 4.76074 18.1406 5.9411 18.1406 7.17188C18.1406 8.40265 17.6517 9.58301 16.7814 10.4533C15.9111 11.3236 14.7308 11.8125 13.5 11.8125C12.2692 11.8125 11.0889 11.3236 10.2186 10.4533C9.3483 9.58301 8.85938 8.40265 8.85938 7.17188C8.85938 5.9411 9.3483 4.76074 10.2186 3.89046C11.0889 3.02017 12.2692 2.53125 13.5 2.53125Z" fill="#29455A"/>
</svg>
